{"title":"Obsessed 2009 DVDRip Xvid BigPerm LKRG","uid":6609208,"size":1107414494,"categoryP":"video","categoryS":"movies","magnet":"?xt=urn:btih:9ea0ab6a450e6d8dde7f94c7ab5d35e3785fa34b&amp;dn=Obsessed+2009+DVDRip+Xvid+BigPerm+LKRG&amp;tr=udp%3A%2F%2Ftracker.openbittorrent.com%3A80&amp;tr=udp%3A%2F%2Fopen.demonii.com%3A1337&amp;tr=udp%3A%2F%2Ftracker.coppersurfer.tk%3A6969&amp;tr=udp%3A%2F%2Fexodus.desync.com%3A6969","seeders":1,"leechers":0,"uploader":".BONE.","files":2,"time":1313522820,"description":"\nPLOT\n\nA successful asset manager, who has just received a huge promotion, is blissfully happy in\nhis career and in his marriage. But when a temp worker starts stalking him, all the things\nhe's worked so hard for are placed in jeopardy.\n &lt;a href=&quot;\nhttp://www.imdb.com/title/tt1198138/&quot; rel=&quot;nofollow&quot; target=&quot;_NEW&quot;&gt;\nhttp://www.imdb.com/title/tt1198138/&lt;/a&gt;\n\nEncoded By .......: BigPerm1828\nRuntime ..........: 1h 47mn\nFile Size ........: 1.03 GB\nResolution .......: 704 x 396\nIMDb URL .........: http://www.imdb.com/title/tt1198138/\nGenre ............: Drama | Thriller\nLanguage .........: English\nVideo\nID : 0\nFormat : MPEG-4 Visual\nFormat profile : Advanced Simple@L5\nFormat settings, BVOP : Yes\nFormat settings, QPel : No\nFormat settings, GMC : No warppoints\nFormat settings, Matrix : Default (H.263)\nCodec ID : XVID\nCodec ID/Hint : XviD\nDuration : 1h 47mn\nBit rate : 52.1 Kbps\nWidth : 704 pixels\nHeight : 396 pixels\nDisplay aspect ratio : 16:9\nFrame rate : 23.976 fps\nColor space : YUV\nChroma subsampling : 4:2:0\nBit depth : 8 bits\nScan type : Progressive\nCompression mode : Lossy\nBits/(Pixel*Frame) : 0.008\nStream size : 40.2 MiB (4%)\nWriting library : XviD 1.2.1 (UTC 2008-12-04)\n\nAudio\nID : 1\nFormat : AC-3\nFormat/Info : Audio Coding 3\nCodec ID : 2000\nDuration : 1h 47mn\nBit rate mode : Constant\nBit rate : 448 Kbps\nChannel(s) : 6 channels\nSampling rate : 48.0 KHz\nBit depth : 16 bits\nCompression mode : Lossy\nStream size : 346 MiB (33%)\nAlignment : Aligned on interleaves\n &lt;a href=&quot;\nhttp://leetleech.org/images/03325559363054889060.png&quot; rel=&quot;nofollow&quot; target=&quot;_NEW&quot;&gt;\nhttp://leetleech.org/images/03325559363054889060.png&lt;/a&gt;\n &lt;a href=&quot;\nhttp://leetleech.org/images/47130549680388442954.png&quot; rel=&quot;nofollow&quot; target=&quot;_NEW&quot;&gt;\nhttp://leetleech.org/images/47130549680388442954.png&lt;/a&gt;\n &lt;a href=&quot;\nhttp://leetleech.org/images/87005345424587540116.png&quot; rel=&quot;nofollow&quot; target=&quot;_NEW&quot;&gt;\nhttp://leetleech.org/images/87005345424587540116.png&lt;/a&gt;\n &lt;a href=&quot;\nhttp://leetleech.org/images/85091329520988590083.png&quot; rel=&quot;nofollow&quot; target=&quot;_NEW&quot;&gt;\nhttp://leetleech.org/images/85091329520988590083.png&lt;/a&gt;","torrent":{"xt":"urn:btih:9ea0ab6a450e6d8dde7f94c7ab5d35e3785fa34b","amp;dn":"Obsessed+2009+DVDRip+Xvid+BigPerm+LKRG","amp;tr":["udp%3A%2F%2Ftracker.openbittorrent.com%3A80","udp%3A%2F%2Fopen.demonii.com%3A1337","udp%3A%2F%2Ftracker.coppersurfer.tk%3A6969","udp%3A%2F%2Fexodus.desync.com%3A6969"],"infoHash":"9ea0ab6a450e6d8dde7f94c7ab5d35e3785fa34b","infoHashBuffer":{"type":"Buffer","data":[158,160,171,106,69,14,109,141,222,127,148,199,171,93,53,227,120,95,163,75]},"announce":[],"urlList":[]}}